<svg width="160" height="95" viewBox="0 0 160 95" fill="none" xmlns="http://www.w3.org/2000/svg">
<path d="M157.138 26.1641C158.719 26.1641 160 27.4457 160 29.0267C160 30.6077 158.719 31.8894 157.138 31.8894H151.611C149.954 31.8894 148.611 33.2325 148.611 34.8894V65.95C148.611 67.6069 147.268 68.95 145.611 68.95H144.593C142.936 68.95 141.593 67.6069 141.593 65.95V34.8894C141.593 33.2325 140.25 31.8894 138.593 31.8894H133.005C131.424 31.8894 130.142 30.6077 130.142 29.0267C130.142 27.4457 131.424 26.1641 133.005 26.1641H157.138Z" fill="white"/>
<path d="M7.01813 61.5167C7.01813 63.1736 8.36127 64.5167 10.0181 64.5167H18.6534C20.2174 64.5167 21.4853 65.7846 21.4853 67.3486C21.4853 68.9126 20.2174 70.1805 18.6534 70.1805H3C1.34315 70.1805 0 68.8373 0 67.1805V30.3945C0 28.7377 1.34315 27.3945 3 27.3945H4.01813C5.67498 27.3945 7.01813 28.7377 7.01813 30.3945V61.5167Z" fill="white"/>
<mask id="mask0_9_5523" style="mask-type:alpha" maskUnits="userSpaceOnUse" x="28" y="0" width="95" height="95">
<path d="M28.011 3C28.011 1.34315 29.3541 0 31.011 0H119.817C121.474 0 122.817 1.34315 122.817 3V91.8063C122.817 93.4631 121.474 94.8063 119.817 94.8063H31.011C29.3541 94.8063 28.011 93.4631 28.011 91.8063V3Z" fill="#D9D9D9"/>
</mask>
<g mask="url(#mask0_9_5523)">
<path d="M49.7374 69.1287C43.6804 69.1287 38.545 67.0219 34.3314 62.8082C30.1178 58.5946 28.011 53.4593 28.011 47.4022C28.011 41.3451 30.1178 36.2098 34.3314 31.9962C38.545 27.7826 43.6804 25.6758 49.7374 25.6758C52.1734 25.6758 54.5107 26.1037 56.7491 26.9596C58.9876 27.8155 60.9957 29.0335 62.7733 30.6136L67.0415 34.5052C68.3522 35.7003 68.3455 37.7654 67.0271 38.952L65.5738 40.2599C64.4314 41.2881 62.6967 41.2866 61.5561 40.2564L57.4404 36.539C56.387 35.6173 55.202 34.8931 53.8852 34.3664C52.5684 33.8397 51.1859 33.5763 49.7374 33.5763C45.9188 33.5763 42.6599 34.926 39.9605 37.6253C37.2612 40.3247 35.9115 43.5836 35.9115 47.4022C35.9115 51.2208 37.2612 54.4798 39.9605 57.1791C42.6599 59.8785 45.9188 61.2281 49.7374 61.2281C51.1859 61.2281 52.5684 60.9648 53.8852 60.4381C55.202 59.9114 56.387 59.1872 57.4404 58.2654L88.055 30.6136C89.8326 29.0335 91.8406 27.8155 94.0791 26.9596C96.3176 26.1037 98.6548 25.6758 101.091 25.6758C107.148 25.6758 112.283 27.7826 116.497 31.9962C120.71 36.2098 122.817 41.3451 122.817 47.4022C122.817 53.4593 120.71 58.5946 116.497 62.8082C112.283 67.0219 107.148 69.1287 101.091 69.1287C98.6548 69.1287 96.3176 68.7007 94.0791 67.8448C91.8406 66.9889 89.8326 65.7709 88.055 64.1908L83.7868 60.2992C82.4761 59.1042 82.4827 57.039 83.8011 55.8525L85.2544 54.5445C86.3969 53.5163 88.1316 53.5179 89.2722 54.5481L93.3878 58.2654C94.4412 59.1872 95.6263 59.9114 96.943 60.4381C98.2598 60.9648 99.6424 61.2281 101.091 61.2281C104.909 61.2281 108.168 59.8785 110.868 57.1791C113.567 54.4798 114.917 51.2208 114.917 47.4022C114.917 43.5836 113.567 40.3247 110.868 37.6253C108.168 34.926 104.909 33.5763 101.091 33.5763C99.6424 33.5763 98.2598 33.8397 96.943 34.3664C95.6263 34.8931 94.4412 35.6173 93.3878 36.539L62.7733 64.1908C60.9957 65.7709 58.9876 66.9889 56.7491 67.8448C54.5107 68.7007 52.1734 69.1287 49.7374 69.1287Z" fill="white"/>
</g>
</svg>
