<svg width="804" height="388" viewBox="0 0 804 388" fill="none" xmlns="http://www.w3.org/2000/svg">
<g clip-path="url(#clip0_164_3909)">
<mask id="mask0_164_3909" style="mask-type:alpha" maskUnits="userSpaceOnUse" x="-17" y="-102" width="160" height="160">
<path d="M141.381 -24.3664C142.553 -23.1949 142.553 -21.2954 141.381 -20.1238L64.8734 56.3839C63.7019 57.5555 61.8024 57.5555 60.6308 56.3839L-15.8769 -20.1238C-17.0485 -21.2953 -17.0485 -23.1948 -15.8769 -24.3664L60.6308 -100.874C61.8023 -102.046 63.7018 -102.046 64.8734 -100.874L141.381 -24.3664Z" fill="#D9D9D9"/>
</mask>
<g mask="url(#mask0_164_3909)">
<path d="M66.1169 -62.6205C71.276 -67.7796 77.4444 -70.3591 84.6222 -70.3591C91.8 -70.3591 97.9685 -67.7796 103.128 -62.6205C108.287 -57.4615 110.866 -51.293 110.866 -44.1152C110.866 -36.9374 108.287 -30.769 103.128 -25.6099C101.053 -23.5351 98.6975 -21.9089 96.0619 -20.7313C93.4263 -19.5537 90.6785 -18.8807 87.8186 -18.7125L80.1919 -18.3605C78.4201 -18.2787 76.9645 -19.7437 77.0577 -21.515L77.2462 -25.0958C77.327 -26.6307 78.5547 -27.8562 80.0897 -27.9343L87.3139 -28.3016C88.9962 -28.4138 90.6224 -28.8063 92.1926 -29.4792C93.7627 -30.1521 95.1646 -31.1055 96.3983 -32.3391C99.6508 -35.5916 101.277 -39.5169 101.277 -44.1152C101.277 -48.7135 99.6508 -52.6389 96.3983 -55.8913C93.1459 -59.1438 89.2205 -60.77 84.6222 -60.77C80.0239 -60.77 76.0986 -59.1438 72.8461 -55.8913C71.6125 -54.6576 70.6592 -53.2557 69.9862 -51.6856C69.3133 -50.1154 68.9208 -48.4892 68.8086 -46.8069L66.2852 2.82091C66.117 5.68082 65.444 8.42858 64.2664 11.0642C63.0888 13.6998 61.4626 16.055 59.3878 18.1298C54.2287 23.2889 48.0603 25.8684 40.8825 25.8684C33.7047 25.8684 27.5362 23.2889 22.3772 18.1298C17.2181 12.9708 14.6386 6.80235 14.6386 -0.375458C14.6386 -7.55327 17.2181 -13.7217 22.3772 -18.8807C24.452 -20.9556 26.8072 -22.5818 29.4428 -23.7594C32.0784 -24.937 34.8262 -25.6099 37.6861 -25.7782L45.3128 -26.1302C47.0846 -26.2119 48.5402 -24.7469 48.447 -22.9757L48.2585 -19.3948C48.1777 -17.86 46.95 -16.6344 45.415 -16.5564L38.1908 -16.1891C36.5085 -16.0769 34.8823 -15.6844 33.3121 -15.0115C31.742 -14.3385 30.3401 -13.3852 29.1064 -12.1515C25.8539 -8.8991 24.2277 -4.97373 24.2277 -0.375451C24.2277 4.22283 25.8539 8.14819 29.1064 11.4006C32.3588 14.6531 36.2842 16.2793 40.8825 16.2793C45.4808 16.2793 49.4061 14.6531 52.6586 11.4006C53.8923 10.167 54.8456 8.76504 55.5185 7.19489C56.1914 5.62475 56.5839 3.99853 56.6961 2.31623L59.2195 -47.3116C59.3877 -50.1715 60.0607 -52.9193 61.2383 -55.5549C62.4159 -58.1905 64.0421 -60.5457 66.1169 -62.6205Z" fill="#272D2F"/>
</g>
<mask id="mask1_164_3909" style="mask-type:alpha" maskUnits="userSpaceOnUse" x="28" y="-57" width="160" height="160">
<path d="M186.548 20.7996C187.719 21.9712 187.719 23.8706 186.548 25.0422L110.04 101.55C108.868 102.722 106.969 102.722 105.797 101.55L29.2896 25.0422C28.118 23.8707 28.118 21.9712 29.2896 20.7996L105.797 -55.7081C106.969 -56.8797 108.868 -56.8797 110.04 -55.7081L186.548 20.7996Z" fill="#D9D9D9"/>
</mask>
<g mask="url(#mask1_164_3909)">
<path d="M111.283 -17.4545C116.442 -22.6136 122.611 -25.1931 129.789 -25.1931C136.967 -25.1931 143.135 -22.6136 148.294 -17.4545C153.453 -12.2955 156.033 -6.12703 156.033 1.05078C156.033 8.22859 153.453 14.397 148.294 19.5561C146.219 21.6309 143.864 23.2571 141.228 24.4347C138.593 25.6123 135.845 26.2853 132.985 26.4535L125.358 26.8055C123.587 26.8873 122.131 25.4223 122.224 23.651L122.413 20.0702C122.493 18.5353 123.721 17.3098 125.256 17.2317L132.48 16.8644C134.163 16.7522 135.789 16.3597 137.359 15.6868C138.929 15.0139 140.331 14.0606 141.565 12.8269C144.817 9.57443 146.443 5.64907 146.443 1.05078C146.443 -3.5475 144.817 -7.47286 141.565 -10.7253C138.312 -13.9778 134.387 -15.604 129.789 -15.604C125.19 -15.604 121.265 -13.9778 118.013 -10.7253C116.779 -9.49162 115.826 -8.08971 115.153 -6.51956C114.48 -4.94941 114.087 -3.32319 113.975 -1.64089L111.452 47.9869C111.283 50.8468 110.611 53.5946 109.433 56.2302C108.255 58.8658 106.629 61.221 104.554 63.2958C99.3952 68.4549 93.2268 71.0344 86.049 71.0344C78.8712 71.0344 72.7027 68.4549 67.5437 63.2959C62.3846 58.1368 59.8051 51.9684 59.8051 44.7906C59.8051 37.6127 62.3846 31.4443 67.5437 26.2853C69.6185 24.2104 71.9737 22.5842 74.6093 21.4066C77.2449 20.229 79.9927 19.5561 82.8526 19.3878L90.4793 19.0358C92.2511 18.9541 93.7067 20.4191 93.6135 22.1903L93.425 25.7712C93.3442 27.306 92.1165 28.5316 90.5815 28.6096L83.3573 28.977C81.675 29.0891 80.0488 29.4816 78.4786 30.1546C76.9085 30.8275 75.5066 31.7808 74.2729 33.0145C71.0204 36.2669 69.3942 40.1923 69.3942 44.7906C69.3942 49.3888 71.0204 53.3142 74.2729 56.5667C77.5253 59.8191 81.4507 61.4453 86.049 61.4453C90.6473 61.4453 94.5726 59.8191 97.8251 56.5667C99.0588 55.333 100.012 53.9311 100.685 52.3609C101.358 50.7908 101.75 49.1645 101.863 47.4822L104.386 -2.14558C104.554 -5.00549 105.227 -7.75325 106.405 -10.3888C107.582 -13.0245 109.209 -15.3797 111.283 -17.4545Z" fill="#272D2F"/>
</g>
<mask id="mask2_164_3909" style="mask-type:alpha" maskUnits="userSpaceOnUse" x="73" y="-12" width="160" height="160">
<path d="M231.714 65.9646C232.885 67.1362 232.885 69.0357 231.714 70.2073L155.206 146.715C154.034 147.887 152.135 147.887 150.963 146.715L74.4556 70.2073C73.284 69.0357 73.284 67.1362 74.4556 65.9646L150.963 -10.5431C152.135 -11.7146 154.034 -11.7146 155.206 -10.5431L231.714 65.9646Z" fill="#D9D9D9"/>
</mask>
<g mask="url(#mask2_164_3909)">
<path d="M156.449 27.7115C161.609 22.5525 167.777 19.9729 174.955 19.9729C182.133 19.9729 188.301 22.5525 193.46 27.7115C198.619 32.8706 201.199 39.039 201.199 46.2168C201.199 53.3946 198.619 59.563 193.46 64.7221C191.385 66.7969 189.03 68.4231 186.394 69.6008C183.759 70.7784 181.011 71.4513 178.151 71.6195L170.524 71.9715C168.753 72.0533 167.297 70.5883 167.39 68.817L167.579 65.2362C167.659 63.7013 168.887 62.4758 170.422 62.3977L177.646 62.0304C179.329 61.9183 180.955 61.5257 182.525 60.8528C184.095 60.1799 185.497 59.2266 186.731 57.9929C189.983 54.7404 191.61 50.8151 191.61 46.2168C191.61 41.6185 189.983 37.6932 186.731 34.4407C183.478 31.1883 179.553 29.562 174.955 29.562C170.356 29.562 166.431 31.1883 163.179 34.4407C161.945 35.6744 160.992 37.0763 160.319 38.6465C159.646 40.2166 159.253 41.8428 159.141 43.5251L156.618 93.1529C156.449 96.0129 155.777 98.7606 154.599 101.396C153.421 104.032 151.795 106.387 149.72 108.462C144.561 113.621 138.393 116.2 131.215 116.2C124.037 116.2 117.869 113.621 112.71 108.462C107.551 103.303 104.971 97.1344 104.971 89.9566C104.971 82.7788 107.551 76.6103 112.71 71.4513C114.785 69.3765 117.14 67.7502 119.775 66.5726C122.411 65.395 125.159 64.7221 128.019 64.5539L135.645 64.2019C137.417 64.1201 138.873 65.5851 138.78 67.3563L138.591 70.9372C138.51 72.472 137.283 73.6976 135.748 73.7756L128.523 74.143C126.841 74.2551 125.215 74.6477 123.645 75.3206C122.074 75.9935 120.673 76.9468 119.439 78.1805C116.186 81.4329 114.56 85.3583 114.56 89.9566C114.56 94.5549 116.186 98.4802 119.439 101.733C122.691 104.985 126.617 106.611 131.215 106.611C135.813 106.611 139.739 104.985 142.991 101.733C144.225 100.499 145.178 99.0971 145.851 97.5269C146.524 95.9568 146.916 94.3306 147.029 92.6483L149.552 43.0204C149.72 40.1605 150.393 37.4128 151.571 34.7772C152.748 32.1416 154.375 29.7863 156.449 27.7115Z" fill="#272D2F"/>
</g>
<mask id="mask3_164_3909" style="mask-type:alpha" maskUnits="userSpaceOnUse" x="159" y="-98" width="160" height="160">
<path d="M317.938 -20.261C319.11 -19.0894 319.11 -17.1899 317.938 -16.0183L241.431 60.4894C240.259 61.661 238.359 61.661 237.188 60.4894L160.68 -16.0183C159.509 -17.1899 159.509 -19.0894 160.68 -20.2609L237.188 -96.7687C238.359 -97.9402 240.259 -97.9402 241.431 -96.7687L317.938 -20.261Z" fill="#D9D9D9"/>
</mask>
<g mask="url(#mask3_164_3909)">
<path d="M242.674 -58.515C247.833 -63.6741 254.001 -66.2536 261.179 -66.2536C268.357 -66.2536 274.525 -63.6741 279.684 -58.5151C284.843 -53.356 287.423 -47.1876 287.423 -40.0098C287.423 -32.832 284.843 -26.6635 279.684 -21.5045C277.609 -19.4296 275.254 -17.8034 272.619 -16.6258C269.983 -15.4482 267.235 -14.7753 264.375 -14.607L256.749 -14.255C254.977 -14.1733 253.521 -15.6383 253.614 -17.4095L253.803 -20.9904C253.884 -22.5252 255.111 -23.7508 256.646 -23.8288L263.871 -24.1962C265.553 -24.3083 267.179 -24.7008 268.749 -25.3738C270.319 -26.0467 271.721 -27 272.955 -28.2337C276.207 -31.4861 277.834 -35.4115 277.834 -40.0098C277.834 -44.608 276.207 -48.5334 272.955 -51.7859C269.703 -55.0383 265.777 -56.6645 261.179 -56.6645C256.581 -56.6645 252.655 -55.0383 249.403 -51.7859C248.169 -50.5522 247.216 -49.1503 246.543 -47.5801C245.87 -46.01 245.477 -44.3837 245.365 -42.7014L242.842 6.92638C242.674 9.78629 242.001 12.534 240.823 15.1696C239.645 17.8052 238.019 20.1605 235.944 22.2353C230.785 27.3944 224.617 29.9739 217.439 29.9739C210.261 29.9739 204.093 27.3944 198.934 22.2353C193.775 17.0763 191.195 10.9078 191.195 3.73001C191.195 -3.4478 193.775 -9.61622 198.934 -14.7753C201.009 -16.8501 203.364 -18.4763 205.999 -19.6539C208.635 -20.8316 211.383 -21.5045 214.243 -21.6727L221.869 -22.0247C223.641 -22.1065 225.097 -20.6415 225.004 -18.8702L224.815 -15.2894C224.734 -13.7545 223.507 -12.529 221.972 -12.4509L214.747 -12.0836C213.065 -11.9714 211.439 -11.5789 209.869 -10.906C208.299 -10.2331 206.897 -9.27976 205.663 -8.04608C202.411 -4.79363 200.784 -0.868266 200.784 3.73002C200.784 8.3283 202.411 12.2537 205.663 15.5061C208.915 18.7585 212.841 20.3848 217.439 20.3848C222.037 20.3848 225.963 18.7586 229.215 15.5061C230.449 14.2724 231.402 12.8705 232.075 11.3004C232.748 9.73021 233.141 8.104 233.253 6.4217L235.776 -43.2061C235.944 -46.066 236.617 -48.8138 237.795 -51.4494C238.973 -54.085 240.599 -56.4402 242.674 -58.515Z" fill="#272D2F"/>
</g>
<mask id="mask4_164_3909" style="mask-type:alpha" maskUnits="userSpaceOnUse" x="118" y="33" width="160" height="160">
<path d="M276.878 111.129C278.05 112.3 278.05 114.2 276.878 115.371L200.37 191.879C199.199 193.051 197.299 193.051 196.128 191.879L119.62 115.371C118.449 114.2 118.449 112.3 119.62 111.129L196.128 34.621C197.299 33.4494 199.199 33.4494 200.37 34.621L276.878 111.129Z" fill="#D9D9D9"/>
</mask>
<g mask="url(#mask4_164_3909)">
<path d="M201.614 72.8756C206.773 67.7165 212.941 65.137 220.119 65.137C227.297 65.137 233.466 67.7165 238.625 72.8756C243.784 78.0346 246.363 84.2031 246.363 91.3809C246.363 98.5587 243.784 104.727 238.625 109.886C236.55 111.961 234.195 113.587 231.559 114.765C228.923 115.942 226.176 116.615 223.316 116.784L215.689 117.136C213.917 117.217 212.462 115.752 212.555 113.981L212.743 110.4C212.824 108.865 214.052 107.64 215.587 107.562L222.811 107.194C224.493 107.082 226.12 106.69 227.69 106.017C229.26 105.344 230.662 104.391 231.895 103.157C235.148 99.9045 236.774 95.9791 236.774 91.3809C236.774 86.7826 235.148 82.8572 231.895 79.6048C228.643 76.3523 224.718 74.7261 220.119 74.7261C215.521 74.7261 211.596 76.3523 208.343 79.6048C207.11 80.8385 206.156 82.2404 205.483 83.8105C204.81 85.3807 204.418 87.0069 204.306 88.6892L201.782 138.317C201.614 141.177 200.941 143.925 199.764 146.56C198.586 149.196 196.96 151.551 194.885 153.626C189.726 158.785 183.557 161.364 176.38 161.364C169.202 161.365 163.033 158.785 157.874 153.626C152.715 148.467 150.136 142.298 150.136 135.121C150.136 127.943 152.715 121.774 157.874 116.615C159.949 114.541 162.304 112.914 164.94 111.737C167.576 110.559 170.323 109.886 173.183 109.718L180.81 109.366C182.582 109.284 184.037 110.749 183.944 112.52L183.756 116.101C183.675 117.636 182.447 118.862 180.912 118.94L173.688 119.307C172.006 119.419 170.379 119.812 168.809 120.485C167.239 121.158 165.837 122.111 164.603 123.345C161.351 126.597 159.725 130.522 159.725 135.121C159.725 139.719 161.351 143.644 164.603 146.897C167.856 150.149 171.781 151.775 176.38 151.775C180.978 151.775 184.903 150.149 188.156 146.897C189.389 145.663 190.343 144.261 191.016 142.691C191.688 141.121 192.081 139.495 192.193 137.812L194.717 88.1845C194.885 85.3246 195.558 82.5768 196.735 79.9412C197.913 77.3056 199.539 74.9504 201.614 72.8756Z" fill="#272D2F"/>
</g>
<mask id="mask5_164_3909" style="mask-type:alpha" maskUnits="userSpaceOnUse" x="204" y="-53" width="160" height="160">
<path d="M363.103 24.905C364.275 26.0766 364.275 27.9761 363.103 29.1477L286.596 105.655C285.424 106.827 283.525 106.827 282.353 105.655L205.845 29.1477C204.674 27.9761 204.674 26.0766 205.845 24.9051L282.353 -51.6026C283.525 -52.7742 285.424 -52.7742 286.596 -51.6026L363.103 24.905Z" fill="#D9D9D9"/>
</mask>
<g mask="url(#mask5_164_3909)">
<path d="M287.84 -13.3481C292.999 -18.5071 299.167 -21.0866 306.345 -21.0866C313.523 -21.0866 319.691 -18.5071 324.85 -13.3481C330.009 -8.18901 332.589 -2.02058 332.589 5.15723C332.589 12.335 330.009 18.5035 324.85 23.6625C322.775 25.7374 320.42 27.3636 317.785 28.5412C315.149 29.7188 312.401 30.3917 309.541 30.5599L301.915 30.9119C300.143 30.9937 298.687 29.5287 298.78 27.7575L298.969 24.1766C299.05 22.6418 300.277 21.4162 301.812 21.3382L309.037 20.9708C310.719 20.8587 312.345 20.4662 313.915 19.7932C315.485 19.1203 316.887 18.167 318.121 16.9333C321.373 13.6809 323 9.75551 323 5.15723C323 0.558945 321.373 -3.36642 318.121 -6.61886C314.869 -9.87131 310.943 -11.4975 306.345 -11.4975C301.747 -11.4975 297.821 -9.87131 294.569 -6.61886C293.335 -5.38518 292.382 -3.98326 291.709 -2.41311C291.036 -0.842968 290.643 0.783255 290.531 2.46555L288.008 52.0934C287.84 54.9533 287.167 57.701 285.989 60.3366C284.811 62.9722 283.185 65.3275 281.11 67.4023C275.951 72.5613 269.783 75.1409 262.605 75.1409C255.427 75.1409 249.259 72.5613 244.1 67.4023C238.941 62.2432 236.361 56.0748 236.361 48.897C236.361 41.7192 238.941 35.5508 244.1 30.3917C246.175 28.3169 248.53 26.6907 251.165 25.5131C253.801 24.3354 256.549 23.6625 259.409 23.4943L267.035 23.1423C268.807 23.0605 270.263 24.5255 270.17 26.2968L269.981 29.8776C269.9 31.4125 268.673 32.638 267.138 32.7161L259.913 33.0834C258.231 33.1956 256.605 33.5881 255.035 34.261C253.465 34.9339 252.063 35.8872 250.829 37.1209C247.577 40.3734 245.95 44.2987 245.95 48.897C245.95 53.4953 247.577 57.4207 250.829 60.6731C254.081 63.9255 258.007 65.5518 262.605 65.5518C267.203 65.5518 271.129 63.9255 274.381 60.6731C275.615 59.4394 276.568 58.0375 277.241 56.4674C277.914 54.8972 278.307 53.271 278.419 51.5887L280.942 1.96086C281.11 -0.899043 281.783 -3.6468 282.961 -6.2824C284.139 -8.91801 285.765 -11.2732 287.84 -13.3481Z" fill="#272D2F"/>
</g>
<mask id="mask6_164_3909" style="mask-type:alpha" maskUnits="userSpaceOnUse" x="163" y="78" width="160" height="160">
<path d="M322.044 156.295C323.215 157.466 323.215 159.366 322.044 160.537L245.536 237.045C244.364 238.217 242.465 238.217 241.293 237.045L164.786 160.537C163.614 159.366 163.614 157.466 164.786 156.295L241.293 79.787C242.465 78.6154 244.364 78.6154 245.536 79.787L322.044 156.295Z" fill="#D9D9D9"/>
</mask>
<g mask="url(#mask6_164_3909)">
<path d="M246.78 118.041C251.939 112.882 258.107 110.302 265.285 110.302C272.463 110.302 278.631 112.882 283.79 118.041C288.949 123.2 291.529 129.368 291.529 136.546C291.529 143.724 288.949 149.892 283.79 155.051C281.715 157.126 279.36 158.752 276.724 159.93C274.089 161.107 271.341 161.78 268.481 161.949L260.854 162.301C259.083 162.382 257.627 160.917 257.72 159.146L257.909 155.565C257.99 154.03 259.217 152.805 260.752 152.727L267.977 152.36C269.659 152.247 271.285 151.855 272.855 151.182C274.425 150.509 275.827 149.556 277.061 148.322C280.313 145.07 281.94 141.144 281.94 136.546C281.94 131.948 280.313 128.022 277.061 124.77C273.808 121.517 269.883 119.891 265.285 119.891C260.687 119.891 256.761 121.517 253.509 124.77C252.275 126.003 251.322 127.405 250.649 128.976C249.976 130.546 249.583 132.172 249.471 133.854L246.948 183.482C246.78 186.342 246.107 189.09 244.929 191.725C243.751 194.361 242.125 196.716 240.05 198.791C234.891 203.95 228.723 206.53 221.545 206.53C214.367 206.53 208.199 203.95 203.04 198.791C197.881 193.632 195.301 187.463 195.301 180.286C195.301 173.108 197.881 166.939 203.04 161.78C205.115 159.706 207.47 158.079 210.105 156.902C212.741 155.724 215.489 155.051 218.349 154.883L225.975 154.531C227.747 154.449 229.203 155.914 229.11 157.685L228.921 161.266C228.84 162.801 227.613 164.027 226.078 164.105L218.853 164.472C217.171 164.584 215.545 164.977 213.975 165.65C212.405 166.323 211.003 167.276 209.769 168.51C206.517 171.762 204.89 175.687 204.89 180.286C204.89 184.884 206.517 188.809 209.769 192.062C213.021 195.314 216.947 196.94 221.545 196.94C226.143 196.94 230.069 195.314 233.321 192.062C234.555 190.828 235.508 189.426 236.181 187.856C236.854 186.286 237.247 184.66 237.359 182.977L239.882 133.35C240.05 130.49 240.723 127.742 241.901 125.106C243.078 122.471 244.705 120.115 246.78 118.041Z" fill="#272D2F"/>
</g>
<mask id="mask7_164_3909" style="mask-type:alpha" maskUnits="userSpaceOnUse" x="250" y="-8" width="160" height="160">
<path d="M408.269 70.0701C409.441 71.2417 409.441 73.1412 408.269 74.3127L331.762 150.82C330.59 151.992 328.691 151.992 327.519 150.82L251.011 74.3128C249.84 73.1412 249.84 71.2417 251.011 70.0701L327.519 -6.43761C328.691 -7.60918 330.59 -7.60918 331.762 -6.43761L408.269 70.0701Z" fill="#D9D9D9"/>
</mask>
<g mask="url(#mask7_164_3909)">
<path d="M333.005 31.816C338.164 26.657 344.333 24.0774 351.51 24.0774C358.688 24.0774 364.857 26.657 370.016 31.816C375.175 36.9751 377.754 43.1435 377.754 50.3213C377.754 57.4991 375.175 63.6675 370.016 68.8266C367.941 70.9014 365.586 72.5276 362.95 73.7052C360.314 74.8829 357.567 75.5558 354.707 75.724L347.08 76.076C345.308 76.1578 343.853 74.6928 343.946 72.9215L344.134 69.3407C344.215 67.8058 345.443 66.5803 346.978 66.5022L354.202 66.1349C355.884 66.0228 357.511 65.6302 359.081 64.9573C360.651 64.2844 362.053 63.3311 363.287 62.0974C366.539 58.8449 368.165 54.9196 368.165 50.3213C368.165 45.723 366.539 41.7976 363.287 38.5452C360.034 35.2928 356.109 33.6665 351.51 33.6665C346.912 33.6665 342.987 35.2928 339.734 38.5452C338.501 39.7789 337.547 41.1808 336.874 42.7509C336.201 44.3211 335.809 45.9473 335.697 47.6296L333.173 97.2574C333.005 100.117 332.332 102.865 331.155 105.501C329.977 108.136 328.351 110.492 326.276 112.566C321.117 117.725 314.948 120.305 307.771 120.305C300.593 120.305 294.424 117.725 289.265 112.566C284.106 107.407 281.527 101.239 281.527 94.0611C281.527 86.8833 284.106 80.7148 289.265 75.5558C291.34 73.4809 293.695 71.8547 296.331 70.6771C298.967 69.4995 301.714 68.8266 304.574 68.6584L312.201 68.3064C313.973 68.2246 315.428 69.6896 315.335 71.4608L315.147 75.0417C315.066 76.5765 313.838 77.8021 312.303 77.8801L305.079 78.2475C303.397 78.3596 301.77 78.7521 300.2 79.4251C298.63 80.098 297.228 81.0513 295.995 82.285C292.742 85.5374 291.116 89.4628 291.116 94.0611C291.116 98.6594 292.742 102.585 295.995 105.837C299.247 109.09 303.172 110.716 307.771 110.716C312.369 110.716 316.294 109.09 319.547 105.837C320.78 104.603 321.734 103.202 322.407 101.631C323.08 100.061 323.472 98.435 323.584 96.7528L326.108 47.1249C326.276 44.265 326.949 41.5173 328.126 38.8817C329.304 36.2461 330.93 33.8908 333.005 31.816Z" fill="#272D2F"/>
</g>
<mask id="mask8_164_3909" style="mask-type:alpha" maskUnits="userSpaceOnUse" x="336" y="-94" width="160" height="160">
<path d="M494.494 -16.1545C495.665 -14.9829 495.665 -13.0835 494.494 -11.9119L417.986 64.5958C416.815 65.7674 414.915 65.7674 413.744 64.5958L337.236 -11.9119C336.064 -13.0834 336.064 -14.9829 337.236 -16.1545L413.744 -92.6622C414.915 -93.8338 416.815 -93.8338 417.986 -92.6622L494.494 -16.1545Z" fill="#D9D9D9"/>
</mask>
<g mask="url(#mask8_164_3909)">
<path d="M419.229 -54.4076C424.388 -59.5667 430.557 -62.1462 437.735 -62.1462C444.912 -62.1462 451.081 -59.5667 456.24 -54.4076C461.399 -49.2486 463.978 -43.0802 463.978 -35.9023C463.978 -28.7245 461.399 -22.5561 456.24 -17.3971C454.165 -15.3222 451.81 -13.696 449.174 -12.5184C446.539 -11.3408 443.791 -10.6679 440.931 -10.4996L433.304 -10.1476C431.532 -10.0658 430.077 -11.5308 430.17 -13.3021L430.358 -16.8829C430.439 -18.4178 431.667 -19.6433 433.202 -19.7214L440.426 -20.0887C442.109 -20.2009 443.735 -20.5934 445.305 -21.2663C446.875 -21.9393 448.277 -22.8926 449.511 -24.1262C452.763 -27.3787 454.389 -31.3041 454.389 -35.9023C454.389 -40.5006 452.763 -44.426 449.511 -47.6784C446.258 -50.9309 442.333 -52.5571 437.735 -52.5571C433.136 -52.5571 429.211 -50.9309 425.958 -47.6784C424.725 -46.4447 423.771 -45.0428 423.099 -43.4727C422.426 -41.9025 422.033 -40.2763 421.921 -38.594L419.397 11.0338C419.229 13.8937 418.556 16.6415 417.379 19.2771C416.201 21.9127 414.575 24.2679 412.5 26.3427C407.341 31.5018 401.173 34.0813 393.995 34.0813C386.817 34.0813 380.649 31.5018 375.489 26.3427C370.33 21.1837 367.751 15.0152 367.751 7.83743C367.751 0.659624 370.33 -5.5088 375.489 -10.6679C377.564 -12.7427 379.92 -14.3689 382.555 -15.5465C385.191 -16.7241 387.938 -17.397 390.798 -17.5653L398.425 -17.9173C400.197 -17.9991 401.653 -16.5341 401.559 -14.7628L401.371 -11.182C401.29 -9.64709 400.062 -8.42156 398.527 -8.3435L391.303 -7.97617C389.621 -7.86402 387.995 -7.47148 386.424 -6.79856C384.854 -6.12564 383.452 -5.17234 382.219 -3.93866C378.966 -0.686212 377.34 3.23916 377.34 7.83744C377.34 12.4357 378.966 16.3611 382.219 19.6135C385.471 22.866 389.396 24.4922 393.995 24.4922C398.593 24.4922 402.518 22.866 405.771 19.6135C407.005 18.3798 407.958 16.9779 408.631 15.4078C409.304 13.8376 409.696 12.2114 409.808 10.5291L412.332 -39.0987C412.5 -41.9586 413.173 -44.7064 414.351 -47.342C415.528 -49.9776 417.154 -52.3328 419.229 -54.4076Z" fill="#272D2F"/>
</g>
<mask id="mask9_164_3909" style="mask-type:alpha" maskUnits="userSpaceOnUse" x="209" y="124" width="160" height="160">
<path d="M367.207 201.457C368.379 202.628 368.379 204.528 367.207 205.699L290.7 282.207C289.528 283.379 287.629 283.379 286.457 282.207L209.949 205.699C208.778 204.528 208.778 202.628 209.949 201.457L286.457 124.949C287.629 123.778 289.528 123.778 290.7 124.949L367.207 201.457Z" fill="#D9D9D9"/>
</mask>
<g mask="url(#mask9_164_3909)">
<path d="M291.943 163.203C297.102 158.044 303.271 155.464 310.448 155.464C317.626 155.464 323.795 158.044 328.954 163.203C334.113 168.362 336.692 174.53 336.692 181.708C336.692 188.886 334.113 195.054 328.954 200.213C326.879 202.288 324.524 203.914 321.888 205.092C319.252 206.27 316.505 206.942 313.645 207.111L306.018 207.463C304.246 207.545 302.791 206.08 302.884 204.308L303.072 200.727C303.153 199.193 304.381 197.967 305.916 197.889L313.14 197.522C314.822 197.409 316.449 197.017 318.019 196.344C319.589 195.671 320.991 194.718 322.225 193.484C325.477 190.232 327.103 186.306 327.103 181.708C327.103 177.11 325.477 173.184 322.224 169.932C318.972 166.679 315.047 165.053 310.448 165.053C305.85 165.053 301.925 166.679 298.672 169.932C297.439 171.166 296.485 172.568 295.812 174.138C295.139 175.708 294.747 177.334 294.635 179.016L292.111 228.644C291.943 231.504 291.27 234.252 290.093 236.887C288.915 239.523 287.289 241.878 285.214 243.953C280.055 249.112 273.886 251.692 266.709 251.692C259.531 251.692 253.362 249.112 248.203 243.953C243.044 238.794 240.465 232.626 240.465 225.448C240.465 218.27 243.044 212.102 248.203 206.943C250.278 204.868 252.633 203.241 255.269 202.064C257.905 200.886 260.652 200.213 263.512 200.045L271.139 199.693C272.911 199.611 274.366 201.076 274.273 202.848L274.085 206.428C274.004 207.963 272.776 209.189 271.241 209.267L264.017 209.634C262.335 209.746 260.708 210.139 259.138 210.812C257.568 211.485 256.166 212.438 254.933 213.672C251.68 216.924 250.054 220.85 250.054 225.448C250.054 230.046 251.68 233.971 254.933 237.224C258.185 240.476 262.11 242.103 266.709 242.103C271.307 242.103 275.232 240.476 278.485 237.224C279.718 235.99 280.672 234.588 281.345 233.018C282.018 231.448 282.41 229.822 282.522 228.139L285.046 178.512C285.214 175.652 285.887 172.904 287.064 170.268C288.242 167.633 289.868 165.278 291.943 163.203Z" fill="#272D2F"/>
</g>
<mask id="mask10_164_3909" style="mask-type:alpha" maskUnits="userSpaceOnUse" x="295" y="37" width="160" height="160">
<path d="M453.434 115.235C454.605 116.407 454.605 118.306 453.434 119.478L376.926 195.985C375.755 197.157 373.855 197.157 372.684 195.985L296.176 119.478C295.004 118.306 295.004 116.407 296.176 115.235L372.683 38.7274C373.855 37.5559 375.755 37.5559 376.926 38.7274L453.434 115.235Z" fill="#D9D9D9"/>
</mask>
<g mask="url(#mask10_164_3909)">
<path d="M378.17 76.982C383.329 71.823 389.498 69.2434 396.675 69.2434C403.853 69.2434 410.022 71.823 415.181 76.982C420.34 82.1411 422.919 88.3095 422.919 95.4873C422.919 102.665 420.34 108.834 415.181 113.993C413.106 116.067 410.751 117.694 408.115 118.871C405.479 120.049 402.732 120.722 399.872 120.89L392.245 121.242C390.473 121.324 389.018 119.859 389.111 118.088L389.299 114.507C389.38 112.972 390.608 111.746 392.143 111.668L399.367 111.301C401.049 111.189 402.676 110.796 404.246 110.123C405.816 109.45 407.218 108.497 408.452 107.263C411.704 104.011 413.33 100.086 413.33 95.4873C413.33 90.889 411.704 86.9637 408.452 83.7112C405.199 80.4588 401.274 78.8325 396.675 78.8325C392.077 78.8325 388.152 80.4588 384.899 83.7112C383.666 84.9449 382.712 86.3468 382.039 87.917C381.367 89.4871 380.974 91.1133 380.862 92.7956L378.338 142.423C378.17 145.283 377.497 148.031 376.32 150.667C375.142 153.302 373.516 155.658 371.441 157.732C366.282 162.891 360.114 165.471 352.936 165.471C345.758 165.471 339.589 162.891 334.43 157.732C329.271 152.573 326.692 146.405 326.692 139.227C326.692 132.049 329.271 125.881 334.43 120.722C336.505 118.647 338.86 117.021 341.496 115.843C344.132 114.666 346.879 113.993 349.739 113.824L357.366 113.472C359.138 113.391 360.593 114.856 360.5 116.627L360.312 120.208C360.231 121.743 359.003 122.968 357.468 123.046L350.244 123.413C348.562 123.526 346.935 123.918 345.365 124.591C343.795 125.264 342.393 126.217 341.16 127.451C337.907 130.703 336.281 134.629 336.281 139.227C336.281 143.825 337.907 147.751 341.16 151.003C344.412 154.256 348.337 155.882 352.936 155.882C357.534 155.882 361.459 154.256 364.712 151.003C365.945 149.769 366.899 148.368 367.572 146.797C368.245 145.227 368.637 143.601 368.749 141.919L371.273 92.2909C371.441 89.431 372.114 86.6833 373.291 84.0477C374.469 81.4121 376.095 79.0569 378.17 76.982Z" fill="#272D2F"/>
</g>
<mask id="mask11_164_3909" style="mask-type:alpha" maskUnits="userSpaceOnUse" x="381" y="-49" width="160" height="160">
<path d="M539.659 29.0105C540.831 30.1821 540.831 32.0816 539.659 33.2532L463.151 109.761C461.98 110.932 460.08 110.932 458.909 109.761L382.401 33.2532C381.229 32.0816 381.229 30.1821 382.401 29.0105L458.909 -47.4972C460.08 -48.6687 461.98 -48.6687 463.151 -47.4972L539.659 29.0105Z" fill="#D9D9D9"/>
</mask>
<g mask="url(#mask11_164_3909)">
<path d="M464.394 -9.24357C469.553 -14.4026 475.722 -16.9821 482.9 -16.9821C490.077 -16.9821 496.246 -14.4026 501.405 -9.24357C506.564 -4.08452 509.143 2.08391 509.143 9.26172C509.143 16.4395 506.564 22.608 501.405 27.767C499.33 29.8418 496.975 31.4681 494.339 32.6457C491.704 33.8233 488.956 34.4962 486.096 34.6644L478.469 35.0164C476.697 35.0982 475.242 33.6332 475.335 31.862L475.524 28.2811C475.604 26.7463 476.832 25.5207 478.367 25.4427L485.591 25.0753C487.274 24.9632 488.9 24.5706 490.47 23.8977C492.04 23.2248 493.442 22.2715 494.676 21.0378C497.928 17.7854 499.554 13.86 499.554 9.26172C499.554 4.66344 497.928 0.738073 494.676 -2.51437C491.423 -5.76682 487.498 -7.39304 482.9 -7.39304C478.301 -7.39304 474.376 -5.76682 471.123 -2.51437C469.89 -1.28068 468.936 0.121232 468.264 1.69138C467.591 3.26152 467.198 4.88775 467.086 6.57005L464.563 56.1979C464.394 59.0578 463.721 61.8055 462.544 64.4411C461.366 67.0767 459.74 69.4319 457.665 71.5068C452.506 76.6658 446.338 79.2454 439.16 79.2454C431.982 79.2454 425.814 76.6658 420.655 71.5068C415.495 66.3477 412.916 60.1793 412.916 53.0015C412.916 45.8237 415.495 39.6553 420.655 34.4962C422.729 32.4214 425.085 30.7952 427.72 29.6175C430.356 28.4399 433.104 27.767 435.963 27.5988L443.59 27.2468C445.362 27.165 446.818 28.63 446.724 30.4013L446.536 33.9821C446.455 35.517 445.227 36.7425 443.692 36.8206L436.468 37.1879C434.786 37.3 433.16 37.6926 431.589 38.3655C430.019 39.0384 428.617 39.9917 427.384 41.2254C424.131 44.4779 422.505 48.4032 422.505 53.0015C422.505 57.5998 424.131 61.5251 427.384 64.7776C430.636 68.03 434.562 69.6563 439.16 69.6563C443.758 69.6563 447.683 68.03 450.936 64.7776C452.17 63.5439 453.123 62.142 453.796 60.5718C454.469 59.0017 454.861 57.3755 454.973 55.6932L457.497 6.06536C457.665 3.20545 458.338 0.45769 459.516 -2.17791C460.693 -4.81351 462.319 -7.16873 464.394 -9.24357Z" fill="#272D2F"/>
</g>
<mask id="mask12_164_3909" style="mask-type:alpha" maskUnits="userSpaceOnUse" x="254" y="169" width="160" height="160">
<path d="M412.375 246.625C413.546 247.796 413.546 249.696 412.375 250.867L335.867 327.375C334.696 328.547 332.796 328.547 331.624 327.375L255.117 250.867C253.945 249.696 253.945 247.796 255.117 246.625L331.624 170.117C332.796 168.946 334.695 168.946 335.867 170.117L412.375 246.625Z" fill="#D9D9D9"/>
</mask>
<g mask="url(#mask12_164_3909)">
<path d="M337.111 208.372C342.27 203.213 348.438 200.633 355.616 200.633C362.794 200.633 368.962 203.213 374.121 208.372C379.28 213.531 381.86 219.699 381.86 226.877C381.86 234.055 379.28 240.223 374.121 245.382C372.046 247.457 369.691 249.083 367.056 250.261C364.42 251.439 361.672 252.111 358.812 252.28L351.186 252.632C349.414 252.713 347.958 251.248 348.051 249.477L348.24 245.896C348.321 244.361 349.548 243.136 351.083 243.058L358.308 242.691C359.99 242.578 361.616 242.186 363.186 241.513C364.756 240.84 366.158 239.887 367.392 238.653C370.644 235.401 372.271 231.475 372.271 226.877C372.271 222.279 370.644 218.353 367.392 215.101C364.14 211.848 360.214 210.222 355.616 210.222C351.018 210.222 347.092 211.848 343.84 215.101C342.606 216.335 341.653 217.736 340.98 219.307C340.307 220.877 339.914 222.503 339.802 224.185L337.279 273.813C337.111 276.673 336.438 279.421 335.26 282.056C334.082 284.692 332.456 287.047 330.381 289.122C325.222 294.281 319.054 296.861 311.876 296.861C304.698 296.861 298.53 294.281 293.371 289.122C288.212 283.963 285.632 277.795 285.632 270.617C285.632 263.439 288.212 257.27 293.371 252.111C295.446 250.037 297.801 248.41 300.436 247.233C303.072 246.055 305.82 245.382 308.68 245.214L316.306 244.862C318.078 244.78 319.534 246.245 319.441 248.017L319.252 251.597C319.171 253.132 317.944 254.358 316.409 254.436L309.184 254.803C307.502 254.915 305.876 255.308 304.306 255.981C302.736 256.654 301.334 257.607 300.1 258.841C296.848 262.093 295.221 266.018 295.221 270.617C295.221 275.215 296.848 279.14 300.1 282.393C303.352 285.645 307.278 287.271 311.876 287.271C316.474 287.271 320.4 285.645 323.652 282.393C324.886 281.159 325.839 279.757 326.512 278.187C327.185 276.617 327.578 274.991 327.69 273.308L330.213 223.681C330.381 220.821 331.054 218.073 332.232 215.437C333.41 212.802 335.036 210.447 337.111 208.372Z" fill="#272D2F"/>
</g>
<mask id="mask13_164_3909" style="mask-type:alpha" maskUnits="userSpaceOnUse" x="340" y="83" width="160" height="160">
<path d="M498.6 160.401C499.771 161.573 499.771 163.472 498.6 164.644L422.092 241.152C420.921 242.323 419.021 242.323 417.85 241.152L341.342 164.644C340.17 163.472 340.17 161.573 341.342 160.401L417.85 83.8934C419.021 82.7219 420.921 82.7219 422.092 83.8934L498.6 160.401Z" fill="#D9D9D9"/>
</mask>
<g mask="url(#mask13_164_3909)">
<path d="M423.336 122.147C428.495 116.988 434.663 114.408 441.841 114.408C449.019 114.408 455.187 116.988 460.346 122.147C465.505 127.306 468.085 133.475 468.085 140.652C468.085 147.83 465.505 153.999 460.346 159.158C458.271 161.232 455.916 162.859 453.281 164.036C450.645 165.214 447.897 165.887 445.037 166.055L437.411 166.407C435.639 166.489 434.183 165.024 434.276 163.253L434.465 159.672C434.546 158.137 435.773 156.911 437.308 156.833L444.533 156.466C446.215 156.354 447.841 155.961 449.411 155.288C450.981 154.615 452.383 153.662 453.617 152.428C456.87 149.176 458.496 145.251 458.496 140.652C458.496 136.054 456.87 132.129 453.617 128.876C450.365 125.624 446.439 123.998 441.841 123.998C437.243 123.998 433.317 125.624 430.065 128.876C428.831 130.11 427.878 131.512 427.205 133.082C426.532 134.652 426.14 136.278 426.027 137.961L423.504 187.588C423.336 190.448 422.663 193.196 421.485 195.832C420.308 198.467 418.681 200.823 416.607 202.897C411.447 208.056 405.279 210.636 398.101 210.636C390.923 210.636 384.755 208.056 379.596 202.897C374.437 197.738 371.857 191.57 371.857 184.392C371.857 177.214 374.437 171.046 379.596 165.887C381.671 163.812 384.026 162.186 386.662 161.008C389.297 159.831 392.045 159.158 394.905 158.989L402.532 158.637C404.303 158.556 405.759 160.021 405.666 161.792L405.477 165.373C405.396 166.908 404.169 168.133 402.634 168.211L395.41 168.579C393.727 168.691 392.101 169.083 390.531 169.756C388.961 170.429 387.559 171.382 386.325 172.616C383.073 175.868 381.446 179.794 381.446 184.392C381.446 188.99 383.073 192.916 386.325 196.168C389.578 199.421 393.503 201.047 398.101 201.047C402.7 201.047 406.625 199.421 409.877 196.168C411.111 194.935 412.064 193.533 412.737 191.962C413.41 190.392 413.803 188.766 413.915 187.084L416.438 137.456C416.606 134.596 417.279 131.848 418.457 129.213C419.635 126.577 421.261 124.222 423.336 122.147Z" fill="#272D2F"/>
</g>
<mask id="mask14_164_3909" style="mask-type:alpha" maskUnits="userSpaceOnUse" x="426" y="-4" width="160" height="160">
<path d="M584.825 74.1756C585.997 75.3471 585.997 77.2466 584.825 78.4182L508.318 154.926C507.146 156.097 505.247 156.097 504.075 154.926L427.567 78.4182C426.396 77.2466 426.396 75.3472 427.567 74.1756L504.075 -2.33214C505.247 -3.50371 507.146 -3.50371 508.318 -2.33214L584.825 74.1756Z" fill="#D9D9D9"/>
</mask>
<g mask="url(#mask14_164_3909)">
<path d="M509.561 35.9225C514.72 30.7634 520.889 28.1839 528.067 28.1839C535.244 28.1839 541.413 30.7634 546.572 35.9224C551.731 41.0815 554.31 47.2499 554.31 54.4277C554.31 61.6055 551.731 67.774 546.572 72.933C544.497 75.0079 542.142 76.6341 539.506 77.8117C536.871 78.9893 534.123 79.6622 531.263 79.8305L523.636 80.1825C521.864 80.2642 520.409 78.7992 520.502 77.028L520.691 73.4471C520.771 71.9123 521.999 70.6867 523.534 70.6087L530.758 70.2413C532.441 70.1292 534.067 69.7367 535.637 69.0637C537.207 68.3908 538.609 67.4375 539.843 66.2038C543.095 62.9514 544.721 59.026 544.721 54.4277C544.721 49.8295 543.095 45.9041 539.843 42.6516C536.59 39.3992 532.665 37.773 528.067 37.773C523.468 37.773 519.543 39.3992 516.29 42.6516C515.057 43.8853 514.103 45.2872 513.431 46.8574C512.758 48.4275 512.365 50.0538 512.253 51.7361L509.73 101.364C509.561 104.224 508.888 106.972 507.711 109.607C506.533 112.243 504.907 114.598 502.832 116.673C497.673 121.832 491.505 124.411 484.327 124.411C477.149 124.411 470.981 121.832 465.822 116.673C460.662 111.514 458.083 105.345 458.083 98.1675C458.083 90.9897 460.662 84.8213 465.822 79.6622C467.896 77.5874 470.252 75.9612 472.887 74.7836C475.523 73.6059 478.271 72.933 481.13 72.7648L488.757 72.4128C490.529 72.331 491.985 73.796 491.891 75.5673L491.703 79.1481C491.622 80.683 490.394 81.9085 488.859 81.9866L481.635 82.3539C479.953 82.4661 478.327 82.8586 476.756 83.5315C475.186 84.2044 473.784 85.1577 472.551 86.3914C469.298 89.6439 467.672 93.5692 467.672 98.1675C467.672 102.766 469.298 106.691 472.551 109.944C475.803 113.196 479.729 114.822 484.327 114.822C488.925 114.822 492.85 113.196 496.103 109.944C497.337 108.71 498.29 107.308 498.963 105.738C499.636 104.168 500.028 102.541 500.14 100.859L502.664 51.2314C502.832 48.3715 503.505 45.6237 504.683 42.9881C505.86 40.3525 507.486 37.9973 509.561 35.9225Z" fill="#272D2F"/>
</g>
<mask id="mask15_164_3909" style="mask-type:alpha" maskUnits="userSpaceOnUse" x="512" y="-90" width="160" height="160">
<path d="M671.051 -12.0491C672.222 -10.8775 672.222 -8.97799 671.051 -7.80641L594.543 68.7013C593.371 69.8729 591.472 69.8729 590.3 68.7013L513.793 -7.80639C512.621 -8.97796 512.621 -10.8775 513.793 -12.049L590.3 -88.5567C591.472 -89.7283 593.371 -89.7283 594.543 -88.5567L671.051 -12.0491Z" fill="#D9D9D9"/>
</mask>
<g mask="url(#mask15_164_3909)">
<path d="M595.787 -50.3031C600.946 -55.4622 607.114 -58.0417 614.292 -58.0417C621.47 -58.0417 627.638 -55.4622 632.797 -50.3031C637.956 -45.1441 640.536 -38.9757 640.536 -31.7979C640.536 -24.62 637.956 -18.4516 632.797 -13.2926C630.723 -11.2177 628.367 -9.5915 625.732 -8.41389C623.096 -7.23628 620.348 -6.56336 617.489 -6.39513L609.862 -6.04313C608.09 -5.96135 606.634 -7.42636 606.728 -9.19762L606.916 -12.7785C606.997 -14.3133 608.225 -15.5389 609.76 -15.6169L616.984 -15.9842C618.666 -16.0964 620.292 -16.4889 621.863 -17.1618C623.433 -17.8348 624.835 -18.7881 626.068 -20.0218C629.321 -23.2742 630.947 -27.1996 630.947 -31.7978C630.947 -36.3961 629.321 -40.3215 626.068 -43.5739C622.816 -46.8264 618.89 -48.4526 614.292 -48.4526C609.694 -48.4526 605.769 -46.8264 602.516 -43.5739C601.282 -42.3403 600.329 -40.9383 599.656 -39.3682C598.983 -37.798 598.591 -36.1718 598.479 -34.4895L595.955 15.1383C595.787 17.9982 595.114 20.746 593.936 23.3816C592.759 26.0172 591.133 28.3724 589.058 30.4472C583.899 35.6063 577.73 38.1858 570.552 38.1858C563.375 38.1858 557.206 35.6063 552.047 30.4472C546.888 25.2882 544.309 19.1197 544.309 11.9419C544.309 4.76412 546.888 -1.40431 552.047 -6.56336C554.122 -8.63819 556.477 -10.2644 559.113 -11.442C561.748 -12.6196 564.496 -13.2926 567.356 -13.4608L574.983 -13.8128C576.755 -13.8946 578.21 -12.4296 578.117 -10.6583L577.928 -7.07746C577.848 -5.5426 576.62 -4.31706 575.085 -4.23901L567.861 -3.87168C566.178 -3.75952 564.552 -3.36699 562.982 -2.69407C561.412 -2.02115 560.01 -1.06785 558.776 0.165836C555.524 3.41828 553.898 7.34365 553.898 11.9419C553.898 16.5402 555.524 20.4656 558.776 23.718C562.029 26.9705 565.954 28.5967 570.552 28.5967C575.151 28.5967 579.076 26.9705 582.328 23.718C583.562 22.4843 584.515 21.0824 585.188 19.5123C585.861 17.9421 586.254 16.3159 586.366 14.6336L588.889 -34.9942C589.058 -37.8541 589.731 -40.6019 590.908 -43.2375C592.086 -45.8731 593.712 -48.2283 595.787 -50.3031Z" fill="#272D2F"/>
</g>
<mask id="mask16_164_3909" style="mask-type:alpha" maskUnits="userSpaceOnUse" x="299" y="214" width="160" height="160">
<path d="M457.54 291.791C458.712 292.962 458.712 294.862 457.54 296.033L381.033 372.541C379.861 373.713 377.962 373.713 376.79 372.541L300.282 296.033C299.111 294.862 299.111 292.962 300.282 291.791L376.79 215.283C377.962 214.112 379.861 214.112 381.033 215.283L457.54 291.791Z" fill="#D9D9D9"/>
</mask>
<g mask="url(#mask16_164_3909)">
<path d="M382.276 253.537C387.435 248.378 393.604 245.798 400.781 245.798C407.959 245.798 414.128 248.378 419.287 253.537C424.446 258.696 427.025 264.864 427.025 272.042C427.025 279.22 424.446 285.388 419.287 290.547C417.212 292.622 414.857 294.248 412.221 295.426C409.585 296.604 406.838 297.276 403.978 297.445L396.351 297.797C394.579 297.878 393.124 296.413 393.217 294.642L393.405 291.061C393.486 289.527 394.714 288.301 396.249 288.223L403.473 287.856C405.155 287.743 406.782 287.351 408.352 286.678C409.922 286.005 411.324 285.052 412.558 283.818C415.81 280.566 417.436 276.64 417.436 272.042C417.436 267.444 415.81 263.518 412.558 260.266C409.305 257.013 405.38 255.387 400.781 255.387C396.183 255.387 392.258 257.013 389.005 260.266C387.772 261.5 386.818 262.902 386.145 264.472C385.472 266.042 385.08 267.668 384.968 269.35L382.444 318.978C382.276 321.838 381.603 324.586 380.426 327.221C379.248 329.857 377.622 332.212 375.547 334.287C370.388 339.446 364.219 342.026 357.042 342.026C349.864 342.026 343.695 339.446 338.536 334.287C333.377 329.128 330.798 322.96 330.798 315.782C330.798 308.604 333.377 302.436 338.536 297.276C340.611 295.202 342.966 293.575 345.602 292.398C348.238 291.22 350.985 290.547 353.845 290.379L361.472 290.027C363.244 289.945 364.699 291.41 364.606 293.182L364.418 296.762C364.337 298.297 363.109 299.523 361.574 299.601L354.35 299.968C352.668 300.08 351.041 300.473 349.471 301.146C347.901 301.819 346.499 302.772 345.266 304.006C342.013 307.258 340.387 311.183 340.387 315.782C340.387 320.38 342.013 324.305 345.266 327.558C348.518 330.81 352.443 332.437 357.042 332.437C361.64 332.437 365.565 330.81 368.818 327.558C370.051 326.324 371.005 324.922 371.678 323.352C372.351 321.782 372.743 320.156 372.855 318.473L375.379 268.846C375.547 265.986 376.22 263.238 377.397 260.602C378.575 257.967 380.201 255.612 382.276 253.537Z" fill="#272D2F"/>
</g>
<mask id="mask17_164_3909" style="mask-type:alpha" maskUnits="userSpaceOnUse" x="385" y="128" width="160" height="160">
<path d="M543.765 205.566C544.937 206.738 544.937 208.637 543.765 209.809L467.258 286.317C466.086 287.488 464.187 287.488 463.015 286.317L386.507 209.809C385.336 208.637 385.336 206.738 386.507 205.566L463.015 129.058C464.187 127.887 466.086 127.887 467.258 129.058L543.765 205.566Z" fill="#D9D9D9"/>
</mask>
<g mask="url(#mask17_164_3909)">
<path d="M468.501 167.313C473.66 162.154 479.829 159.574 487.007 159.574C494.184 159.574 500.353 162.154 505.512 167.313C510.671 172.472 513.25 178.641 513.25 185.818C513.25 192.996 510.671 199.165 505.512 204.324C503.437 206.398 501.082 208.025 498.446 209.202C495.811 210.38 493.063 211.053 490.203 211.221L482.576 211.573C480.804 211.655 479.349 210.19 479.442 208.419L479.63 204.838C479.711 203.303 480.939 202.077 482.474 201.999L489.698 201.632C491.38 201.52 493.007 201.127 494.577 200.454C496.147 199.781 497.549 198.828 498.783 197.594C502.035 194.342 503.661 190.417 503.661 185.818C503.661 181.22 502.035 177.295 498.783 174.042C495.53 170.79 491.605 169.164 487.007 169.164C482.408 169.164 478.483 170.79 475.23 174.042C473.997 175.276 473.043 176.678 472.371 178.248C471.698 179.818 471.305 181.444 471.193 183.127L468.669 232.755C468.501 235.614 467.828 238.362 466.651 240.998C465.473 243.633 463.847 245.989 461.772 248.063C456.613 253.222 450.445 255.802 443.267 255.802C436.089 255.802 429.921 253.222 424.761 248.063C419.602 242.904 417.023 236.736 417.023 229.558C417.023 222.38 419.602 216.212 424.761 211.053C426.836 208.978 429.192 207.352 431.827 206.174C434.463 204.997 437.21 204.324 440.07 204.155L447.697 203.803C449.469 203.722 450.924 205.187 450.831 206.958L450.643 210.539C450.562 212.074 449.334 213.299 447.799 213.377L440.575 213.745C438.893 213.857 437.267 214.249 435.696 214.922C434.126 215.595 432.724 216.548 431.491 217.782C428.238 221.034 426.612 224.96 426.612 229.558C426.612 234.156 428.238 238.082 431.491 241.334C434.743 244.587 438.668 246.213 443.267 246.213C447.865 246.213 451.79 244.587 455.043 241.334C456.277 240.101 457.23 238.699 457.903 237.128C458.576 235.558 458.968 233.932 459.08 232.25L461.604 182.622C461.772 179.762 462.445 177.014 463.623 174.379C464.8 171.743 466.426 169.388 468.501 167.313Z" fill="#272D2F"/>
</g>
<mask id="mask18_164_3909" style="mask-type:alpha" maskUnits="userSpaceOnUse" x="471" y="41" width="160" height="160">
<path d="M629.99 119.342C631.162 120.513 631.162 122.413 629.99 123.584L553.483 200.092C552.311 201.264 550.412 201.264 549.24 200.092L472.732 123.584C471.561 122.413 471.561 120.513 472.732 119.342L549.24 42.8339C550.412 41.6623 552.311 41.6623 553.483 42.8339L629.99 119.342Z" fill="#D9D9D9"/>
</mask>
<g mask="url(#mask18_164_3909)">
<path d="M554.726 81.0885C559.885 75.9294 566.054 73.3499 573.232 73.3499C580.409 73.3499 586.578 75.9294 591.737 81.0885C596.896 86.2475 599.475 92.4159 599.475 99.5938C599.475 106.772 596.896 112.94 591.737 118.099C589.662 120.174 587.307 121.8 584.671 122.978C582.036 124.155 579.288 124.828 576.428 124.996L568.801 125.348C567.029 125.43 565.574 123.965 565.667 122.194L565.856 118.613C565.936 117.078 567.164 115.853 568.699 115.775L575.923 115.407C577.606 115.295 579.232 114.903 580.802 114.23C582.372 113.557 583.774 112.604 585.008 111.37C588.26 108.117 589.886 104.192 589.886 99.5938C589.886 94.9955 588.26 91.0701 585.008 87.8177C581.755 84.5652 577.83 82.939 573.232 82.939C568.633 82.939 564.708 84.5652 561.456 87.8177C560.222 89.0513 559.269 90.4533 558.596 92.0234C557.923 93.5936 557.53 95.2198 557.418 96.9021L554.895 146.53C554.726 149.39 554.053 152.138 552.876 154.773C551.698 157.409 550.072 159.764 547.997 161.839C542.838 166.998 536.67 169.577 529.492 169.577C522.314 169.577 516.146 166.998 510.987 161.839C505.828 156.68 503.248 150.511 503.248 143.334C503.248 136.156 505.828 129.987 510.987 124.828C513.061 122.753 515.417 121.127 518.052 119.95C520.688 118.772 523.436 118.099 526.295 117.931L533.922 117.579C535.694 117.497 537.15 118.962 537.056 120.733L536.868 124.314C536.787 125.849 535.559 127.075 534.024 127.153L526.8 127.52C525.118 127.632 523.492 128.025 521.921 128.698C520.351 129.37 518.949 130.324 517.716 131.557C514.463 134.81 512.837 138.735 512.837 143.334C512.837 147.932 514.463 151.857 517.716 155.11C520.968 158.362 524.894 159.988 529.492 159.988C534.09 159.988 538.016 158.362 541.268 155.11C542.502 153.876 543.455 152.474 544.128 150.904C544.801 149.334 545.193 147.708 545.305 146.025L547.829 96.3974C547.997 93.5375 548.67 90.7897 549.848 88.1541C551.025 85.5185 552.651 83.1633 554.726 81.0885Z" fill="#272D2F"/>
</g>
<mask id="mask19_164_3909" style="mask-type:alpha" maskUnits="userSpaceOnUse" x="558" y="-45" width="160" height="160">
<path d="M716.215 33.1121C717.387 34.2837 717.387 36.1831 716.215 37.3547L639.707 113.862C638.536 115.034 636.636 115.034 635.465 113.862L558.957 37.3547C557.785 36.1832 557.785 34.2837 558.957 33.1121L635.465 -43.3956C636.636 -44.5672 638.536 -44.5672 639.707 -43.3956L716.215 33.1121Z" fill="#D9D9D9"/>
</mask>
<g mask="url(#mask19_164_3909)">
<path d="M640.951 -5.14103C646.11 -10.3001 652.278 -12.8796 659.456 -12.8796C666.634 -12.8796 672.802 -10.3001 677.962 -5.14103C683.121 0.0180207 685.7 6.18645 685.7 13.3643C685.7 20.5421 683.121 26.7105 677.962 31.8695C675.887 33.9444 673.531 35.5706 670.896 36.7482C668.26 37.9258 665.513 38.5987 662.653 38.767L655.026 39.119C653.254 39.2008 651.798 37.7358 651.892 35.9645L652.08 32.3837C652.161 30.8488 653.389 29.6233 654.924 29.5452L662.148 29.1779C663.83 29.0657 665.456 28.6732 667.027 28.0003C668.597 27.3273 669.999 26.374 671.232 25.1404C674.485 21.8879 676.111 17.9625 676.111 13.3643C676.111 8.76598 674.485 4.84061 671.232 1.58817C667.98 -1.66428 664.054 -3.2905 659.456 -3.2905C654.858 -3.2905 650.933 -1.66428 647.68 1.58817C646.446 2.82185 645.493 4.22377 644.82 5.79392C644.147 7.36406 643.755 8.99029 643.643 10.6726L641.119 60.3004C640.951 63.1603 640.278 65.9081 639.1 68.5437C637.923 71.1793 636.297 73.5345 634.222 75.6093C629.063 80.7684 622.894 83.3479 615.716 83.3479C608.539 83.3479 602.37 80.7684 597.211 75.6093C592.052 70.4503 589.473 64.2818 589.473 57.104C589.473 49.9262 592.052 43.7578 597.211 38.5988C599.286 36.5239 601.641 34.8977 604.277 33.7201C606.912 32.5425 609.66 31.8696 612.52 31.7013L620.147 31.3493C621.919 31.2675 623.374 32.7325 623.281 34.5038L623.093 38.0846C623.012 39.6195 621.784 40.845 620.249 40.9231L613.025 41.2904C611.342 41.4026 609.716 41.7951 608.146 42.468C606.576 43.141 605.174 44.0943 603.94 45.3279C600.688 48.5804 599.062 52.5058 599.062 57.104C599.062 61.7023 600.688 65.6277 603.94 68.8801C607.193 72.1326 611.118 73.7588 615.716 73.7588C620.315 73.7588 624.24 72.1326 627.493 68.8801C628.726 67.6464 629.68 66.2445 630.352 64.6744C631.025 63.1042 631.418 61.478 631.53 59.7957L634.054 10.1679C634.222 7.30799 634.895 4.56023 636.072 1.92463C637.25 -0.710975 638.876 -3.06619 640.951 -5.14103Z" fill="#272D2F"/>
</g>
<mask id="mask20_164_3909" style="mask-type:alpha" maskUnits="userSpaceOnUse" x="344" y="259" width="160" height="160">
<path d="M502.706 336.957C503.877 338.128 503.877 340.028 502.706 341.199L426.198 417.707C425.027 418.879 423.127 418.879 421.955 417.707L345.448 341.199C344.276 340.028 344.276 338.128 345.448 336.957L421.955 260.449C423.127 259.278 425.027 259.278 426.198 260.449L502.706 336.957Z" fill="#D9D9D9"/>
</mask>
<g mask="url(#mask20_164_3909)">
<path d="M427.442 298.704C432.601 293.545 438.769 290.965 445.947 290.965C453.125 290.965 459.293 293.545 464.452 298.704C469.611 303.863 472.191 310.031 472.191 317.209C472.191 324.387 469.611 330.555 464.452 335.714C462.377 337.789 460.022 339.415 457.387 340.593C454.751 341.771 452.003 342.443 449.143 342.612L441.517 342.964C439.745 343.045 438.289 341.58 438.382 339.809L438.571 336.228C438.652 334.694 439.879 333.468 441.414 333.39L448.639 333.023C450.321 332.91 451.947 332.518 453.517 331.845C455.087 331.172 456.489 330.219 457.723 328.985C460.975 325.733 462.602 321.807 462.602 317.209C462.602 312.611 460.975 308.685 457.723 305.433C454.471 302.18 450.545 300.554 445.947 300.554C441.349 300.554 437.423 302.18 434.171 305.433C432.937 306.667 431.984 308.068 431.311 309.639C430.638 311.209 430.245 312.835 430.133 314.517L427.61 364.145C427.442 367.005 426.769 369.753 425.591 372.388C424.414 375.024 422.787 377.379 420.712 379.454C415.553 384.613 409.385 387.193 402.207 387.193C395.029 387.193 388.861 384.613 383.702 379.454C378.543 374.295 375.963 368.127 375.963 360.949C375.963 353.771 378.543 347.603 383.702 342.443C385.777 340.369 388.132 338.742 390.768 337.565C393.403 336.387 396.151 335.714 399.011 335.546L406.638 335.194C408.409 335.112 409.865 336.577 409.772 338.349L409.583 341.929C409.502 343.464 408.275 344.69 406.74 344.768L399.515 345.135C397.833 345.247 396.207 345.64 394.637 346.313C393.067 346.986 391.665 347.939 390.431 349.173C387.179 352.425 385.552 356.35 385.552 360.949C385.552 365.547 387.179 369.472 390.431 372.725C393.684 375.977 397.609 377.604 402.207 377.604C406.805 377.604 410.731 375.977 413.983 372.725C415.217 371.491 416.17 370.089 416.843 368.519C417.516 366.949 417.909 365.323 418.021 363.64L420.544 314.013C420.712 311.153 421.385 308.405 422.563 305.769C423.741 303.134 425.367 300.779 427.442 298.704Z" fill="#272D2F"/>
</g>
<mask id="mask21_164_3909" style="mask-type:alpha" maskUnits="userSpaceOnUse" x="430" y="173" width="160" height="160">
<path d="M588.93 250.731C590.102 251.903 590.102 253.802 588.93 254.974L512.422 331.482C511.251 332.653 509.351 332.653 508.18 331.482L431.672 254.974C430.5 253.802 430.5 251.903 431.672 250.731L508.18 174.224C509.351 173.052 511.251 173.052 512.422 174.224L588.93 250.731Z" fill="#D9D9D9"/>
</mask>
<g mask="url(#mask21_164_3909)">
<path d="M513.666 212.477C518.825 207.318 524.993 204.739 532.171 204.739C539.349 204.739 545.517 207.318 550.676 212.477C555.835 217.636 558.415 223.805 558.415 230.982C558.415 238.16 555.835 244.329 550.676 249.488C548.602 251.563 546.246 253.189 543.611 254.366C540.975 255.544 538.227 256.217 535.367 256.385L527.741 256.737C525.969 256.819 524.513 255.354 524.607 253.583L524.795 250.002C524.876 248.467 526.104 247.241 527.639 247.163L534.863 246.796C536.545 246.684 538.171 246.291 539.741 245.618C541.312 244.946 542.713 243.992 543.947 242.759C547.2 239.506 548.826 235.581 548.826 230.982C548.826 226.384 547.2 222.459 543.947 219.206C540.695 215.954 536.769 214.328 532.171 214.328C527.573 214.328 523.647 215.954 520.395 219.206C519.161 220.44 518.208 221.842 517.535 223.412C516.862 224.982 516.47 226.608 516.357 228.291L513.834 277.919C513.666 280.778 512.993 283.526 511.815 286.162C510.638 288.797 509.011 291.153 506.937 293.227C501.778 298.387 495.609 300.966 488.431 300.966C481.254 300.966 475.085 298.387 469.926 293.227C464.767 288.068 462.187 281.9 462.187 274.722C462.187 267.544 464.767 261.376 469.926 256.217C472.001 254.142 474.356 252.516 476.992 251.338C479.627 250.161 482.375 249.488 485.235 249.319L492.862 248.967C494.633 248.886 496.089 250.351 495.996 252.122L495.807 255.703C495.727 257.238 494.499 258.463 492.964 258.541L485.74 258.909C484.057 259.021 482.431 259.413 480.861 260.086C479.291 260.759 477.889 261.712 476.655 262.946C473.403 266.199 471.777 270.124 471.777 274.722C471.777 279.32 473.403 283.246 476.655 286.498C479.908 289.751 483.833 291.377 488.431 291.377C493.03 291.377 496.955 289.751 500.207 286.498C501.441 285.265 502.394 283.863 503.067 282.293C503.74 280.722 504.133 279.096 504.245 277.414L506.768 227.786C506.937 224.926 507.609 222.178 508.787 219.543C509.965 216.907 511.591 214.552 513.666 212.477Z" fill="#272D2F"/>
</g>
<mask id="mask22_164_3909" style="mask-type:alpha" maskUnits="userSpaceOnUse" x="517" y="87" width="160" height="160">
<path d="M675.156 164.508C676.328 165.679 676.328 167.579 675.156 168.75L598.648 245.258C597.477 246.43 595.577 246.43 594.406 245.258L517.898 168.75C516.726 167.579 516.726 165.679 517.898 164.508L594.406 87.9999C595.577 86.8283 597.477 86.8283 598.648 87.9999L675.156 164.508Z" fill="#D9D9D9"/>
</mask>
<g mask="url(#mask22_164_3909)">
<path d="M599.892 126.254C605.051 121.095 611.22 118.516 618.398 118.516C625.575 118.516 631.744 121.095 636.903 126.254C642.062 131.414 644.641 137.582 644.641 144.76C644.641 151.938 642.062 158.106 636.903 163.265C634.828 165.34 632.473 166.966 629.837 168.144C627.202 169.321 624.454 169.994 621.594 170.162L613.967 170.514C612.195 170.596 610.74 169.131 610.833 167.36L611.022 163.779C611.102 162.244 612.33 161.019 613.865 160.941L621.089 160.573C622.772 160.461 624.398 160.069 625.968 159.396C627.538 158.723 628.94 157.77 630.174 156.536C633.426 153.283 635.052 149.358 635.052 144.76C635.052 140.161 633.426 136.236 630.174 132.984C626.921 129.731 622.996 128.105 618.398 128.105C613.799 128.105 609.874 129.731 606.622 132.984C605.388 134.217 604.435 135.619 603.762 137.189C603.089 138.76 602.696 140.386 602.584 142.068L600.061 191.696C599.892 194.556 599.219 197.304 598.042 199.939C596.864 202.575 595.238 204.93 593.163 207.005C588.004 212.164 581.836 214.743 574.658 214.743C567.48 214.743 561.312 212.164 556.153 207.005C550.994 201.846 548.414 195.677 548.414 188.5C548.414 181.322 550.994 175.153 556.153 169.994C558.227 167.919 560.583 166.293 563.218 165.116C565.854 163.938 568.602 163.265 571.461 163.097L579.088 162.745C580.86 162.663 582.316 164.128 582.222 165.899L582.034 169.48C581.953 171.015 580.725 172.241 579.19 172.319L571.966 172.686C570.284 172.798 568.658 173.191 567.088 173.864C565.517 174.536 564.115 175.49 562.882 176.723C559.629 179.976 558.003 183.901 558.003 188.5C558.003 193.098 559.629 197.023 562.882 200.276C566.134 203.528 570.06 205.154 574.658 205.154C579.256 205.154 583.182 203.528 586.434 200.276C587.668 199.042 588.621 197.64 589.294 196.07C589.967 194.5 590.359 192.874 590.471 191.191L592.995 141.563C593.163 138.703 593.836 135.956 595.014 133.32C596.191 130.685 597.817 128.329 599.892 126.254Z" fill="#272D2F"/>
</g>
<mask id="mask23_164_3909" style="mask-type:alpha" maskUnits="userSpaceOnUse" x="603" y="0" width="160" height="160">
<path d="M761.381 78.282C762.552 79.4536 762.552 81.3531 761.381 82.5246L684.873 159.032C683.701 160.204 681.802 160.204 680.63 159.032L604.123 82.5247C602.951 81.3531 602.951 79.4536 604.123 78.282L680.63 1.77431C681.802 0.602734 683.701 0.602735 684.873 1.77431L761.381 78.282Z" fill="#D9D9D9"/>
</mask>
<g mask="url(#mask23_164_3909)">
<path d="M686.117 40.0279C691.276 34.8689 697.444 32.2893 704.622 32.2893C711.8 32.2893 717.968 34.8689 723.128 40.0279C728.287 45.187 730.866 51.3554 730.866 58.5332C730.866 65.711 728.287 71.8794 723.128 77.0385C721.053 79.1133 718.697 80.7396 716.062 81.9172C713.426 83.0948 710.679 83.7677 707.819 83.9359L700.192 84.2879C698.42 84.3697 696.965 82.9047 697.058 81.1334L697.246 77.5526C697.327 76.0177 698.555 74.7922 700.09 74.7142L707.314 74.3468C708.996 74.2347 710.622 73.8421 712.193 73.1692C713.763 72.4963 715.165 71.543 716.398 70.3093C719.651 67.0569 721.277 63.1315 721.277 58.5332C721.277 53.9349 719.651 50.0096 716.398 46.7571C713.146 43.5047 709.221 41.8784 704.622 41.8784C700.024 41.8784 696.099 43.5047 692.846 46.7571C691.612 47.9908 690.659 49.3927 689.986 50.9629C689.313 52.533 688.921 54.1592 688.809 55.8415L686.285 105.469C686.117 108.329 685.444 111.077 684.266 113.713C683.089 116.348 681.463 118.703 679.388 120.778C674.229 125.937 668.06 128.517 660.882 128.517C653.705 128.517 647.536 125.937 642.377 120.778C637.218 115.619 634.639 109.451 634.639 102.273C634.639 95.0952 637.218 88.9267 642.377 83.7677C644.452 81.6929 646.807 80.0666 649.443 78.889C652.078 77.7114 654.826 77.0385 657.686 76.8703L665.313 76.5183C667.085 76.4365 668.54 77.9015 668.447 79.6728L668.259 83.2536C668.178 84.7885 666.95 86.014 665.415 86.092L658.191 86.4594C656.508 86.5715 654.882 86.9641 653.312 87.637C651.742 88.3099 650.34 89.2632 649.106 90.4969C645.854 93.7493 644.228 97.6747 644.228 102.273C644.228 106.871 645.854 110.797 649.106 114.049C652.359 117.302 656.284 118.928 660.882 118.928C665.481 118.928 669.406 117.302 672.659 114.049C673.892 112.815 674.846 111.413 675.518 109.843C676.191 108.273 676.584 106.647 676.696 104.965L679.22 55.3368C679.388 52.4769 680.061 49.7292 681.238 47.0936C682.416 44.458 684.042 42.1028 686.117 40.0279Z" fill="#272D2F"/>
</g>
<mask id="mask24_164_3909" style="mask-type:alpha" maskUnits="userSpaceOnUse" x="689" y="-86" width="160" height="160">
<path d="M847.606 -7.94358C848.777 -6.77201 848.777 -4.87252 847.606 -3.70094L771.098 72.8068C769.926 73.9783 768.027 73.9783 766.855 72.8068L690.348 -3.70092C689.176 -4.87249 689.176 -6.77199 690.348 -7.94356L766.855 -84.4513C768.027 -85.6229 769.926 -85.6229 771.098 -84.4513L847.606 -7.94358Z" fill="#D9D9D9"/>
</mask>
<g mask="url(#mask24_164_3909)">
<path d="M772.342 -46.1967C777.501 -51.3557 783.669 -53.9353 790.847 -53.9353C798.025 -53.9353 804.193 -51.3557 809.352 -46.1967C814.511 -41.0376 817.091 -34.8692 817.091 -27.6914C817.091 -20.5136 814.511 -14.3452 809.352 -9.18612C807.277 -7.11128 804.922 -5.48506 802.286 -4.30745C799.651 -3.12984 796.903 -2.45692 794.043 -2.28869L786.417 -1.93668C784.645 -1.85491 783.189 -3.31991 783.282 -5.09117L783.471 -8.67201C783.552 -10.2069 784.779 -11.4324 786.314 -11.5105L793.539 -11.8778C795.221 -11.9899 796.847 -12.3825 798.417 -13.0554C799.987 -13.7283 801.389 -14.6816 802.623 -15.9153C805.875 -19.1678 807.502 -23.0931 807.502 -27.6914C807.502 -32.2897 805.875 -36.2151 802.623 -39.4675C799.37 -42.7199 795.445 -44.3462 790.847 -44.3462C786.249 -44.3462 782.323 -42.7199 779.071 -39.4675C777.837 -38.2338 776.884 -36.8319 776.211 -35.2617C775.538 -33.6916 775.145 -32.0654 775.033 -30.3831L772.51 19.2447C772.342 22.1046 771.669 24.8524 770.491 27.488C769.313 30.1236 767.687 32.4788 765.612 34.5537C760.453 39.7127 754.285 42.2922 747.107 42.2922C739.929 42.2922 733.761 39.7127 728.602 34.5537C723.443 29.3946 720.863 23.2262 720.863 16.0484C720.863 8.87056 723.443 2.70214 728.602 -2.45691C730.677 -4.53175 733.032 -6.15797 735.667 -7.33558C738.303 -8.51319 741.051 -9.18611 743.911 -9.35434L751.537 -9.70634C753.309 -9.78812 754.765 -8.32312 754.672 -6.55186L754.483 -2.97102C754.402 -1.43616 753.175 -0.210618 751.64 -0.132567L744.415 0.234768C742.733 0.346921 741.107 0.739455 739.537 1.41237C737.967 2.08529 736.565 3.03859 735.331 4.27228C732.079 7.52473 730.452 11.4501 730.452 16.0484C730.452 20.6467 732.079 24.572 735.331 27.8245C738.583 31.0769 742.509 32.7031 747.107 32.7031C751.705 32.7031 755.631 31.0769 758.883 27.8245C760.117 26.5908 761.07 25.1889 761.743 23.6187C762.416 22.0486 762.809 20.4224 762.921 18.7401L765.444 -30.8878C765.612 -33.7477 766.285 -36.4954 767.463 -39.131C768.64 -41.7666 770.267 -44.1219 772.342 -46.1967Z" fill="#272D2F"/>
</g>
</g>
<defs>
<clipPath id="clip0_164_3909">
<rect width="804" height="388" fill="white"/>
</clipPath>
</defs>
</svg>
